<?xml version="1.0" encoding="UTF-8"?>
<svg width="50pt" height="45pt" version="1.0" viewBox="0 0 133.000000 104.000000" xmlns="http://www.w3.org/2000/svg">
<g transform="translate(0 104) scale(.1 -.1)" fill="#fff">
<path d="m703 1006c-166-41-304-172-354-339-17-55-20-86-17-165 3-53 8-104 12-114 6-12 1-18-23-23-22-5-40 0-72 20l-42 27-96-32c-53-18-100-36-105-41-4-4 15-16 44-26 31-10 55-25 58-35 2-10 8-18 13-18 4 0 2-19-7-42-8-22-13-43-11-44 2-2 46 12 97 30l94 34 11 47c7 34 16 50 31 56 19 6 24 1 45-44 30-64 136-173 205-209 246-131 552-33 674 216 27 54 43 104 50 151 47 345-270 632-607 551zm220-71c126-33 217-106 273-220 107-216 24-465-190-571-197-97-448-22-550 166-29 54-28 65 14 75 21 5 27 1 38-24 24-55 91-119 160-153 59-30 76-33 152-33s93 3 152 33c82 40 149 111 178 190 32 85 26 206-14 285-36 71-99 130-174 165-81 38-202 38-283 0-76-35-129-85-170-160-32-60-34-69-35-168-1-104-1-104-28-113-15-5-30-6-34-2s-7 57-7 118c0 105 2 116 31 177 91 190 290 286 487 235zm14-155c102-45 154-124 161-241 4-70 2-84-22-133-101-206-370-220-499-26-23 33-22 36 15 49 27 10 33 9 42-6 31-59 121-113 186-113 111 0 209 100 210 213 1 209-264 291-385 119-25-37-30-54-32-110-1-59-4-67-24-74-40-15-49-3-49 60 0 214 203 348 397 262zm-35-142c87-61 73-193-25-241-53-27-111-15-157 31l-35 35 40 14c29 10 45 11 57 4 51-31 113 13 90 65-7 13-19 27-27 30-27 11-64-5-77-33-8-16-28-31-50-39l-38-13v37c0 110 132 175 222 110z"/>
</g>
</svg>
